<?xml version="1.0" encoding="utf-8"?>
<!-- Generator: Adobe Illustrator 25.4.1, SVG Export Plug-In . SVG Version: 6.00 Build 0)  -->
<svg version="1.1" id="Layer_1" xmlns="http://www.w3.org/2000/svg" xmlns:xlink="http://www.w3.org/1999/xlink" x="0px" y="0px"
	 viewBox="0 0 384 359" style="enable-background:new 0 0 384 359;" xml:space="preserve">
<style type="text/css">
	.st0{fill:#FFFFFF;}
</style>
<path class="st0" d="M0,229.5c1.9-1.5,3.6-3.6,5.7-4.4c25.2-9.4,51-11.1,77.3-5c0.7,0.2,1.4,0.3,2.7,0.6c-1.3-3.7-2.5-6.9-3.6-10.2
	c-3.7-11.4-8.6-22.5-11-34.1c-7.6-37.7,18.9-75.2,56.9-81.9c11.8-2.1,23.4-1.3,34.9,2.3c2.9-6.9,5.7-13.6,8.4-20.4
	c0.3-0.7-0.1-1.9-0.5-2.8c-1.4-2.9-3-5.8-4.4-8.7c-3.2-6.5-3-13,0.5-19.4c7.4-13,14.6-26.1,22.4-39c1.7-2.7,5.2-4.4,7.8-6.5
	c2,0,4,0,6,0c7.6,4.3,15.2,8.5,22.8,12.9c8,4.6,9.8,11.2,5.2,19.3c-7,12.3-14,24.5-21,36.8c-4.2,7.4-10.5,11.6-18.9,11.2
	c-7.3-0.3-10.5,2.5-13.2,9.5c-13.6,35.7-22.2,72.5-26.7,110.4c-2.3,19.3-4.4,38.7-6.5,58.1c-0.1,1.1-0.1,2.2-0.2,4.3
	c3.5-0.3,6.7-0.5,9.9-1c0.8-0.1,1.5-1.5,1.9-2.5c6.2-15.2,19.1-24.1,35-24.2c16.2-0.1,29.3,8.4,35.6,23.3c0.9,2,1.8,2.6,3.9,2.4
	c7.2-0.9,12.9-4.5,17.8-9.6c7-7.4,11.8-16.1,15.2-25.6c5.4-15.2,10.6-30.4,15.6-45.7c6-18.2,6-37.1,5.3-56c-0.1-1.4-1.4-3.2-2.6-4.2
	c-16.4-13.7-35-18.1-55.7-12.4c-10.2,2.8-20.3,6.2-30.4,9.3c-1.2,0.4-2.4,0.8-3.6,0.9c-3,0.2-5.1-1.1-5.8-4.1
	c-0.7-2.9,0.3-5.6,3.2-6.4C205.7,102,221,95,237.8,93.5c43.4-3.7,80.5,33.9,75.7,77.2c-0.9,8.4-3.8,16.7-6.4,24.9
	c-2.5,8.2-5.8,16.2-9,24.9c3.1-0.7,5.6-1.3,8.2-1.8c24.9-4.6,49.2-2.2,72.9,6.7c1.8,0.7,3.1,2.6,4.7,4c0,1.2,0,2.5,0,3.8
	c-2.9,3.9-6.3,3.6-10.5,2.1c-23.9-8.6-48.2-10.3-72.9-3.5c-6.4,1.8-6.3,1.9-6.8,8.3c-2,26.6-4.7,53-11.8,78.8
	c-2.8,10-6.2,19.8-12.3,28.4c-9.9,14-24.5,15.6-37.2,3.9c-7.5-6.9-12.4-15.6-16.5-24.8c-1.3-2.9-0.1-6.1,2.6-7.3
	c2.6-1.3,5.8-0.3,7.4,2.4c2.5,4.3,4.5,9,7.3,13c2.8,3.9,6.1,7.7,9.8,10.6c5.4,4.2,10.7,3.3,15.3-1.8c5.5-6.1,8.3-13.6,10.8-21.2
	c6.2-19.1,9.1-38.9,11.2-58.8c1.1-10.7,1.6-21.4,2.5-32.1c0.2-2.1,0.9-4.1,1.6-6.1c4.8-13.3,9.6-26.5,14.4-39.8
	c5.6-15.5,5.1-30.8-1.6-46.2c-0.5,0.5-0.8,0.7-0.8,0.9c0.5,24.6-7.2,47.4-15.5,70.1c-0.4,1.2-0.7,2.4-1.2,3.5
	c-6.2,13.1-6.3,27.3-7.5,41.3c-2,22.2-4.9,44.2-12,65.4c-1.4,4.2-3.3,8.4-5.4,12.3c-2.8,5.2-7.6,5.9-11,0.9
	c-4.2-6.1-8.4-12.6-10.9-19.5c-5.5-15.4-10.4-31-14.6-46.7c-3.5-13.1-13-21.6-26.4-21.7c-13.4,0-23.4,8.3-26.3,21.6
	c-4.4,19.8-10.4,39.1-19.5,57.2c-1.5,3-3.4,5.9-5.4,8.5c-4.2,5.4-9.3,5.3-11.8-0.9c-4-9.9-7.8-20-10.2-30.4
	c-5.2-22.4-7.3-45.3-8.6-68.3c-0.1-2-0.5-4-1.2-5.8c-5-14.9-10-29.8-15.2-44.6c-4.6-13.2-5.9-26.8-6.2-40.6c0-1-0.1-1.9-0.1-2.9
	c-0.4-0.1-0.9-0.2-1.3-0.3c-1.4,5.5-3.3,11-4.2,16.6c-1.7,10-0.4,19.9,3.1,29.5c3.6,9.8,6.8,19.8,10.9,29.5
	c4.1,9.9,5.5,20.1,6.1,30.6c1.4,22.3,4,44.6,9.8,66.2c2.3,8.5,5.2,17,9.2,24.8c7.2,14.1,16.5,14.7,26.4,2.3c7.4-9.3,12.3-20,16-31.2
	c4.2-12.9,7.7-26.1,11.3-39.2c2.3-8.6,8.4-13.7,17.2-13.7c8.9,0,15.2,5,17.4,13.6c2.4,9.3,4.9,18.6,7.4,27.9c1.2,4.5,0,7.5-3.5,8.5
	c-3.3,1-6-0.8-7.2-5.2c-2.5-8.8-4.8-17.6-7.1-26.4c-1.4-5.4-2.7-7-6.7-7c-4,0-5.7,1.6-6.9,6.8c-4.2,18.4-9.2,36.6-17.4,53.6
	c-3.6,7.5-8.3,14.5-13.2,21.2c-3.9,5.4-9.6,9.2-16.3,10.6c-10.4,2.1-17.9-2.7-23.7-10.8c-7.4-10.2-11-22.1-14-34.1
	c-6.2-24.7-8.8-49.9-10.3-75.2c-0.2-3.7-1.6-4.9-4.7-5.8c-25.3-7.5-50.3-6-75,2.8c-5.8,2.1-6.7,2-10.5-2C0,232,0,230.8,0,229.5z
	 M159.6,107.8c-18.7-7.3-45.5-1.7-58.8,12.4c-0.9,0.9-1.5,2.4-1.6,3.6c-0.8,15.6-1.4,31.4,2.7,46.6c4.1,15.1,9.7,29.8,14.7,44.7
	c3.4,10,6.5,20.1,10.2,30.1c1.3,3.6,3.9,6.7,6,10c0.3-0.1,0.7-0.2,1-0.4C138.2,205,145.1,155.8,159.6,107.8z M260.7,254.7
	c-8,9.2-17.3,15.9-30,17.1c4.5,16.8,9.5,32.9,17.6,49C256.1,298.8,258.7,276.9,260.7,254.7z M153,273.4c-11.9,1.2-21.2-3.2-29.4-12
	c2.5,20.5,5,39.9,12.1,59.5C143.5,305.2,148.4,289.7,153,273.4z M184.9,36.9c8,4.5,15.5,8.8,23.2,13.2c3.5-6.1,6.7-11.7,9.9-17.3
	c4.9-8.7,5-8.7-3.8-13.7c-4.7-2.7-9.4-5.3-14.4-8.1C194.7,19.7,189.9,28.1,184.9,36.9z M179.5,46.8c-3.9,4.9-4.7,9.3-2.2,15.1
	c2.8,6.2,6.1,8.4,12.9,7.3c6.6-1.1,9.6-2.8,11.7-9.6C194.6,55.4,187.1,51.1,179.5,46.8z"/>
<path class="st0" d="M55,350.1c-3.1,0-5.6-2.7-5.5-5.8c0.1-3,2.6-5.3,5.6-5.3c3,0,5.5,2.4,5.6,5.4C60.8,347.4,58.1,350.1,55,350.1z"
	/>
<path class="st0" d="M42.1,323.1c0,3.1-2.2,5.4-5.3,5.5c-3.2,0.1-5.8-2.4-5.8-5.5c0-3.1,2.7-5.7,5.8-5.6
	C39.8,317.6,42.1,320.1,42.1,323.1z"/>
<path class="st0" d="M339.1,267.8c3.1,0.1,5.5,2.7,5.4,5.9c-0.1,3-2.6,5.4-5.6,5.3c-3.1-0.1-5.6-2.8-5.4-5.9
	C333.6,270,336.1,267.7,339.1,267.8z"/>
</svg>
