<?xml version="1.0" encoding="utf-8"?>
<!-- Generator: Adobe Illustrator 25.4.1, SVG Export Plug-In . SVG Version: 6.00 Build 0)  -->
<svg version="1.1" id="Layer_1" xmlns="http://www.w3.org/2000/svg" xmlns:xlink="http://www.w3.org/1999/xlink" x="0px" y="0px"
	 viewBox="0 0 366.4 512" style="enable-background:new 0 0 366.4 512;" xml:space="preserve">
<style type="text/css">
	.st0{fill:#FFFFFF;}
</style>
<g>
	<path class="st0" d="M149.2,512c-9.5-3.3-13.9-10.1-14.2-20c-0.1-4.1-1-8.2-1.6-12.8c-7.7,1-15.1,0.3-20.1-5.8
		c-2.9-3.5-5.4-8.2-6.1-12.7c-1.9-11.8,4.8-19.2,21.2-24.5c-0.8-7.2-1.6-14.5-2.5-22.5c-8.4,1.2-16.5,0.6-22-6.3
		c-2.7-3.3-4.9-7.8-5.5-11.9c-1.7-12,4.1-18.3,22.3-25.1c-0.8-7.2-1.6-14.6-2.5-22.4c-7.6,0.6-14.8-0.4-19.7-6.3
		c-2.8-3.5-5.1-7.9-5.9-12.3c-2.1-10.8,3.8-17.6,20.6-24.8c-1.7-14.7-3.4-29.6-5.3-45.2c-4.3,0-8.6,0-12.9,0c-6.7,0-13.3,0.1-20-0.1
		c-8-0.2-14.3-5.3-16-13.2c-1.8-8.4-3.2-17-4.9-25.5c-0.9-0.1-1.5-0.3-2.1-0.3c-15.1-0.4-18.8-3.2-23-17.6
		c-8.2-28.3-17.1-56.3-24.4-84.8c-12-47.1,18-98.8,64.6-112.7c6.8-2,13.9-3.3,20.8-4.9c5.3,0,10.7,0,16,0c3.3,0.5,6.5,1,9.8,1.6
		c16.3,3.1,32.5,6.9,48.9,9.2c32.6,4.7,63.9-4.6,95.4-10.8c5.7,0,11.3,0,17,0c6.7,1.6,13.6,3,20.2,5c11.8,3.5,22.3,9.6,31.7,17.4
		c5.3,4.4,6.3,8.4,3,12.3c-3,3.6-7.3,3.4-12.3-0.6c-18.7-15.1-40-21.6-63.9-18.1c-11.3,1.7-22.4,5-33.7,7.1
		c-31.9,6.1-63.7,4.7-95-3.7c-17.9-4.8-35.6-6-53.6-0.4C44.9,28,21.5,56.4,18,86.2c-1.5,12.7-0.1,24.9,3.4,37
		c7.5,25.7,15.2,51.4,22.6,77.1c1.1,3.8,2.7,4.9,6.5,4.9c18.8-0.2,37.7-0.1,56.5,0c2.3,0,4.7,0.3,6.8,1.2c3.2,1.5,4.2,4.6,3.4,8
		c-1,4-3.9,5.6-7.8,5.6c-11.3,0-22.7,0-34,0c-1.8,0-3.6,0-5.9,0c1.3,7.6,2.5,14.6,3.9,21.6c0.2,1,1.8,2,3,2.5c1,0.4,2.3,0.1,3.5,0.1
		c68.8,0,137.7-0.1,206.5,0.1c4.7,0,6.9-1.1,7.4-6c0.6-5.9,2-11.8,3.2-18.3c-2.2,0-4.2,0-6.1,0c-48,0-96,0-144,0
		c-7.8,0-11.4-2.3-11.6-7.2c-0.2-5.2,3.7-7.8,11.6-7.8c56.2,0,112.3-0.1,168.5,0.1c4.2,0,6-1.2,7.2-5.4
		c7.8-27.5,16.2-54.9,23.9-82.4c5.2-18.7,3.2-36.9-4.8-54.6c-3.2-7.1-2.7-11.3,1.7-13.5c4.7-2.3,8.6,0,11.9,7.2
		c10.4,22.8,11.5,46.2,4.4,70.1c-7.6,25.3-15,50.7-22.4,76.1c-4.1,13.9-8,16.9-22.2,17.3c-0.8,0-1.6,0.1-2.8,0.2
		c-1.4,7.4-2.8,14.8-4.1,22.1c-2.1,11.9-7.9,16.9-20.1,16.9c-7.7,0-15.4,0.4-23-0.1c-5.4-0.4-7.7,1.3-7.3,6.7
		c0.1,0.8-0.1,1.6-0.2,2.7c6.2,2.2,11.4,5.5,14.3,11.6c5.6,12,0.1,25.5-12.8,29.2c-5.5,1.6-7.5,3.9-7.6,9.3
		c-0.2,6.1-1.3,12.2-1.8,17.3c4.9,3.3,10,5.5,13.4,9.2c9.4,10,5.8,26.5-6.6,32.5c-0.9,0.4-1.8,1-2.8,1.1
		c-9.4,0.4-10.6,6.6-10.8,14.1c-0.1,4.8-1,9.6-1.6,14.5c2.6,1,5.1,1.8,7.4,3.1c7.7,4.3,11.5,11,10.9,19.8c-0.7,8.9-5.3,16.1-14,18.1
		c-8.4,1.9-10.4,6.2-10.8,13.9c-0.6,11.3-2.4,22.5-3.8,33.7c-1,8.4-6.3,13.2-13.9,15.9C194.5,512,171.8,512,149.2,512z M237,315.8
		c-1.7,0.4-2.5,0.5-3.3,0.7c-6.6,1.8-13.1,3.7-19.8,5.2c-6.4,1.5-11.5-2.7-10.3-8.2c0.9-4,3.8-5.6,7.4-6.5c11.4-3,22.8-6.1,34.2-9.1
		c3.2-0.9,6.5-1.6,9.6-2.7c3.5-1.2,5.2-3.9,4.1-7.4c-1-3.5-3.7-4.9-7.4-4.3c-1.1,0.2-2.3,0.5-3.4,0.8c-44,11.8-88,23.6-132,35.5
		c-7.2,1.9-9.8,4.6-8.6,8.6c1.2,4.2,4.8,5.2,11.8,3.4c18.9-5.1,37.9-10.2,56.9-15.3c5-1.3,8.9,0.6,10.2,4.7c1.4,4.4-0.9,8.2-6.1,9.8
		c-4,1.2-8,2.1-12.1,3.2c-11.7,3.1-23.3,6.3-35.3,9.5c0.9,7.8,1.8,15.2,2.6,22.4c0.9,0.1,1.2,0.2,1.5,0.2
		c31.7-8.4,63.3-16.8,95-25.3c1-0.3,2.1-1.6,2.3-2.6C235.2,331,236,323.8,237,315.8z M127.8,300.9c2.2-0.5,3.8-0.9,5.3-1.3
		c34-9.1,68-18.5,102.2-27.2c5.9-1.5,8.1-4.1,7.8-9.6c0-1,0-1.9,0-3.1c-40.1,0-79.9,0-120.1,0C124.6,273.6,126.2,287.1,127.8,300.9z
		 M148.1,475c0.8,6.6,1.3,12.7,2.3,18.8c0.2,1.3,2.6,3.1,4.1,3.1c19.1,0.2,38.3,0.1,57.5,0.2c2.9,0,4.2-1.3,4.4-4.1
		c0.4-4.1,1-8.3,1.5-12.4c0.9-8,1.8-16.1,2.7-24.9C196.1,462.2,172.4,468.5,148.1,475z M143.1,431.8c0.7,0.1,0.9,0.2,1.1,0.1
		c26.5-7,53-14,79.4-21.1c1-0.3,2.3-1.5,2.5-2.5c1-7.3,1.8-14.7,2.7-22.7c-29.9,8-59.1,15.8-88.3,23.7
		C141.4,417.3,142.3,424.6,143.1,431.8z M253.3,359.8c0.1-5.9-3.8-8-10.2-6.3c-29.9,8-59.8,16-89.7,24c-11.6,3.1-23.2,6.1-34.7,9.5
		c-2.2,0.6-4.6,2.9-5.3,5c-0.6,1.5,0.9,4.9,2.4,5.8c1.8,1.1,4.8,1.1,7,0.5c16.8-4.3,33.5-8.8,50.2-13.3
		c24.6-6.6,49.2-13.2,73.8-19.8C250.3,364.3,253.1,363,253.3,359.8z M244.8,428.9c-0.2-4.9-4.1-7-10.1-5.4
		c-31.1,8.3-62.3,16.7-93.4,25c-5.1,1.4-10.3,2.7-15.3,4.3c-3.6,1.2-4.8,4.1-3.7,7.6c1,3.4,3.7,4.5,7,4c1.3-0.2,2.6-0.6,3.9-0.9
		c18.3-4.9,36.6-9.8,54.9-14.7c16.8-4.5,33.7-9.1,50.5-13.6C242.1,434.3,244.6,432.6,244.8,428.9z"/>
	<path class="st0" d="M183.5,67.6c-20.1-0.8-39.8-3.5-59.2-8.8c-5.7-1.6-8.2-4.9-7.2-9.5c1-4.4,5-6.2,10.8-5.1
		c12.2,2.3,24.4,5.2,36.7,6.7c24.4,2.9,48.5,0.1,72.2-6.1c1.3-0.3,2.6-0.7,3.9-0.8c4.6-0.5,7.9,1.6,8.6,5.5c0.8,4.5-1.1,7.6-5.4,8.7
		c-8.2,2.1-16.4,4.4-24.8,5.6C207.4,65.5,195.4,66.3,183.5,67.6z"/>
</g>
</svg>
