<?xml version="1.0" encoding="utf-8"?>
<!-- Generator: Adobe Illustrator 25.4.1, SVG Export Plug-In . SVG Version: 6.00 Build 0)  -->
<svg version="1.1" id="Layer_1" xmlns="http://www.w3.org/2000/svg" xmlns:xlink="http://www.w3.org/1999/xlink" x="0px" y="0px"
	 viewBox="0 0 384 336" style="enable-background:new 0 0 384 336;" xml:space="preserve">
<style type="text/css">
	.st0{fill:#FFFFFF;}
</style>
<path class="st0" d="M0,117.9c2-4.6,5.6-6.1,10.5-6.1c20.5,0.2,41,0,61.5,0.1c18.7,0,35.2-6,49.5-18.2C155,65,199.6,63.2,235.4,89.2
	c3.9,2.9,7.9,5.7,11.8,8.6c13.1,9.4,27.7,14.1,43.8,14.1c27.5,0,55,0.1,82.5-0.1c4.9,0,8.5,1.5,10.5,6.1c0,1.5,0,3,0,4.5
	c-2.4,4.2-6,5.6-10.9,5.5c-27-0.2-54-0.2-81,0c-20.6,0.1-39.1-5.8-55.6-18c-4.1-3-8.3-6.1-12.4-9c-28.1-19.9-64.6-18.5-90.9,3.9
	c-14.6,12.4-31,20.4-50.1,22.6c-3.8,0.4-7.7,0.5-11.6,0.5c-20.2,0.1-40.5-0.1-60.7,0.1c-4.8,0-8.5-1.3-10.9-5.5
	C0,120.9,0,119.4,0,117.9z"/>
<path class="st0" d="M284.2,224.7c-0.3,10.4-4.4,20-12.5,27.9c-13.4,13.2-28.3,24.6-44.2,34.6c-21.3,13.4-42.1,27.2-61.6,43.3
	c-9.8,8.1-23,7.1-32.4-1.8c-9.3-8.8-10.8-22-3.6-32.3c9.5-13.6,19-27.2,28.6-40.9c3.5-5,3.2-9.5-0.8-13.4c-4-3.9-8.3-4.1-13.4-0.5
	c-13.2,9.2-26.6,18.2-39.6,27.8c-16.9,12.5-38.8,0.2-40.6-18.1c-0.6-5.7,0.4-11.2,4-15.6c20.3-23.9,35.9-51.1,53.7-76.7
	c7.6-10.9,16.4-21.2,25.6-30.7c21.7-22.6,57.7-13.2,66.3,17c6.1,21.4,19.7,35,41.2,41C272.5,191,284.1,206.3,284.2,224.7z
	 M148.7,222.9c11.4,0,20.7,5.6,25.2,14.5c4.6,9.1,4.1,18-1.8,26.5c-9.6,13.6-19.1,27.2-28.6,40.8c-3.1,4.4-2.6,8.8,1.2,12.4
	c3.7,3.4,7.9,3.5,12.1,0.2c6.8-5.3,13.3-11,20.4-15.9c15.5-10.7,31.3-21,47.1-31.3c13.3-8.7,25.8-18.5,37-29.9
	c12.3-12.6,7.3-32.9-9.4-38.5c-2.2-0.7-4.6-1.3-6.8-2.1c-23.9-8.5-39.2-24.9-46.2-49.2c-5.7-19.8-26.8-25.4-40.7-10.2
	c-9.8,10.7-19.2,22.1-27.4,34.1c-15.9,23.3-30.3,47.7-48.6,69.3c-1.4,1.7-2.1,4.7-1.7,6.9c1,6.7,8.8,9.8,14.4,5.9
	c13.7-9.6,27.5-19.1,41.1-28.8C140.3,224.8,145,223,148.7,222.9z"/>
<path class="st0" d="M135,48c-1.2-0.7-3.4-1.4-4.9-2.9c-5.3-5-10.3-10.1-15.4-15.3c-3.5-3.6-3.6-8.1-0.5-11.4c3.2-3.4,8-3.5,11.7,0
	c5.3,5.1,10.5,10.3,15.6,15.6c2.5,2.5,3.3,5.5,1.8,8.9C141.9,46.2,139.3,47.6,135,48z"/>
<path class="st0" d="M255.9,25.2c-0.5,0.9-1.2,3.1-2.7,4.7c-4.9,5.2-10,10.2-15.1,15.1c-3.7,3.6-8.4,3.8-11.7,0.5
	c-3.3-3.2-3.2-8.1,0.3-11.7c5.2-5.3,10.4-10.5,15.7-15.6c2.6-2.5,5.7-3.1,9-1.5C254.4,18.2,255.9,20.6,255.9,25.2z"/>
<path class="st0" d="M176.1,15.9c0-2.7-0.1-5.5,0-8.2c0.2-4.5,3.3-7.5,7.6-7.6c4.3-0.1,7.9,2.8,8.1,7.1c0.3,5.8,0.3,11.7,0,17.6
	c-0.2,4.3-3.9,7.2-8.2,7.1c-4.1-0.1-7.3-3-7.5-7.3C176,21.6,176.1,18.7,176.1,15.9C176.1,15.9,176.1,15.9,176.1,15.9z"/>
</svg>
